<svg width="148" height="42" viewBox="0 0 148 42" fill="none" xmlns="http://www.w3.org/2000/svg">
<path d="M89.1064 13.1648H90.6435C90.6946 14.206 91.6855 15.2647 93.256 15.2647C94.793 15.2647 95.6304 14.3083 95.6304 13.2672C95.6304 12.1228 94.5883 11.6102 93.5975 11.3543L92.0782 10.9821C89.5847 10.3848 89.1939 8.91574 89.1939 7.95929C89.1939 5.92731 91.0212 4.62939 93.0699 4.62939C95.1363 4.62939 96.7915 5.94498 96.7915 8.04488H95.2545C95.2545 6.867 94.2813 6.06407 93.0169 6.06407C91.839 6.06407 90.7458 6.7814 90.7458 7.94253C90.7458 8.35283 90.8826 9.20601 92.454 9.58189L93.9901 9.95405C95.9886 10.449 97.1842 11.5422 97.1842 13.216C97.1842 15.0433 95.6955 16.6994 93.256 16.6994C90.7802 16.6994 89.1232 14.9912 89.1064 13.1648Z" fill="white"/>
<path d="M105.946 11.9177V16.5278H104.457V12.0024C104.457 10.671 103.638 9.85131 102.528 9.85131C101.418 9.85131 100.086 10.4831 100.086 12.208V16.5278H98.5977V4.19824H100.086V9.76572C100.564 8.79253 101.861 8.38222 102.733 8.38222C104.717 8.38222 105.964 9.68012 105.946 11.9177Z" fill="white"/>
<path d="M107.073 12.5151C107.073 9.9882 108.969 8.38232 111.24 8.38232C113.512 8.38232 115.427 9.9882 115.427 12.5151C115.427 15.0421 113.514 16.7019 111.24 16.7019C108.967 16.7019 107.073 15.043 107.073 12.5151ZM113.939 12.5151C113.939 10.8758 112.709 9.78257 111.24 9.78257C109.789 9.78257 108.576 10.8758 108.576 12.5151C108.576 14.1722 109.785 15.2989 111.24 15.2989C112.711 15.2989 113.939 14.1722 113.939 12.5151Z" fill="white"/>
<path d="M125.019 12.5496C125.019 15.0765 123.225 16.6991 121.039 16.6991C119.844 16.6991 118.714 16.2209 118.188 15.2821V20.4049H116.699V8.55352H118.188V9.81701C118.717 8.89499 119.878 8.38232 121.023 8.38232C123.208 8.38232 125.019 10.0394 125.019 12.5496ZM123.515 12.5663C123.515 10.9781 122.354 9.78257 120.886 9.78257C119.468 9.78257 118.188 10.859 118.188 12.5663C118.188 14.2912 119.588 15.2989 120.886 15.2989C122.354 15.2989 123.515 14.1722 123.515 12.5663Z" fill="white"/>
<path d="M31.2275 4.76855H39.9993L39.1936 7.28063H36.9178V16.5585H34.082V7.27411L31.2294 7.27877L31.2275 4.76855Z" fill="white"/>
<path d="M54.3691 4.76855H63.3437L62.538 7.28063H60.0641V16.5585H57.2236V7.27411L54.371 7.27877L54.3691 4.76855Z" fill="white"/>
<path d="M40.5352 8.51807H43.3468L43.344 16.5557H40.5519L40.5352 8.51807Z" fill="white"/>
<path d="M44.4625 4.73633H47.2713V10.2256L50.056 7.4931H53.4054L49.8839 10.9104L53.8278 16.5551H50.7333L48.1003 12.64L47.263 13.4495V16.5551H44.4541L44.4625 4.73633Z" fill="white"/>
<path d="M74.2272 4.73633H77.036V10.2256L79.8207 7.4931H83.1701L79.6486 10.9104L83.5925 16.5551H80.498L77.8659 12.64L77.0286 13.4495V16.5551H74.2197L74.2272 4.73633Z" fill="white"/>
<path d="M41.9395 7.59882C42.7211 7.59882 43.3547 6.96524 43.3547 6.18369C43.3547 5.40214 42.7211 4.76855 41.9395 4.76855C41.158 4.76855 40.5244 5.40214 40.5244 6.18369C40.5244 6.96524 41.158 7.59882 41.9395 7.59882Z" fill="white"/>
<path d="M62.9833 11.7446C62.9833 10.5339 63.4398 9.36767 64.2617 8.47867C65.0836 7.58967 66.2105 7.04325 67.4175 6.94843C67.2938 6.93912 67.1235 6.93262 66.9961 6.93262C65.7315 6.9502 64.5248 7.46485 63.6368 8.36528C62.7488 9.2657 62.251 10.4795 62.251 11.7441C62.251 13.0088 62.7488 14.2226 63.6368 15.123C64.5248 16.0234 65.7315 16.5381 66.9961 16.5557C67.1235 16.5557 67.2938 16.5492 67.4175 16.5399C66.2107 16.445 65.0839 15.8987 64.262 15.0099C63.4402 14.1211 62.9835 12.9552 62.9833 11.7446Z" fill="#25F4EE"/>
<path d="M68.5111 6.93262C68.3827 6.93262 68.2115 6.93912 68.0859 6.94936C69.2913 7.04589 70.4162 7.59289 71.2364 8.48144C72.0566 9.36999 72.5121 10.5349 72.5121 11.7441C72.5121 12.9534 72.0566 14.1183 71.2364 15.0068C70.4162 15.8954 69.2913 16.4424 68.0859 16.5389C68.2115 16.5492 68.3827 16.5557 68.5111 16.5557C69.7756 16.5381 70.9824 16.0234 71.8704 15.123C72.7584 14.2226 73.2563 13.0088 73.2563 11.7441C73.2563 10.4795 72.7584 9.2657 71.8704 8.36528C70.9824 7.46485 69.7756 6.9502 68.5111 6.93262Z" fill="#FE2C55"/>
<path d="M67.7504 6.93262C66.7987 6.93243 65.8682 7.21449 65.0768 7.74312C64.2853 8.27176 63.6684 9.02323 63.3041 9.9025C62.9397 10.7818 62.8443 11.7493 63.0298 12.6828C63.2154 13.6163 63.6736 14.4738 64.3466 15.1469C65.0195 15.8199 65.8769 16.2783 66.8104 16.4641C67.7438 16.6498 68.7114 16.5546 69.5907 16.1904C70.4701 15.8262 71.2217 15.2095 71.7504 14.4181C72.2792 13.6268 72.5615 12.6964 72.5615 11.7446C72.5615 10.4686 72.0546 9.24473 71.1524 8.34234C70.2502 7.43994 69.0265 6.93286 67.7504 6.93262ZM67.7504 14.0836C67.2878 14.0836 66.8356 13.9464 66.4509 13.6894C66.0663 13.4324 65.7665 13.0671 65.5895 12.6397C65.4124 12.2123 65.3661 11.742 65.4564 11.2883C65.5466 10.8346 65.7694 10.4178 66.0965 10.0907C66.4236 9.76357 66.8404 9.54079 67.2941 9.45054C67.7478 9.36029 68.2181 9.40662 68.6455 9.58365C69.0729 9.76068 69.4382 10.0605 69.6952 10.4451C69.9522 10.8298 70.0894 11.282 70.0894 11.7446C70.0894 12.365 69.843 12.9599 69.4043 13.3985C68.9657 13.8372 68.3708 14.0836 67.7504 14.0836Z" fill="white"/>
<path d="M11.0115 13.1673V11.8648C8.8559 11.5692 6.66354 12.0074 4.78713 13.1088C2.91071 14.2102 1.45935 15.9108 0.666525 17.937C-0.126296 19.9632 -0.214479 22.1972 0.416164 24.2796C1.04681 26.362 2.35961 28.1717 4.14337 29.4176C4.09778 29.3683 4.05031 29.3189 4.00845 29.2687C2.47702 27.5521 1.59687 25.2894 1.59687 22.8108C1.58877 20.2902 2.57088 17.8671 4.33174 16.0634C6.09261 14.2598 8.49137 13.2197 11.0115 13.1673Z" fill="#25F4EE"/>
<path d="M11.2407 27.2778C12.3946 27.2706 13.5016 26.8202 14.3328 26.0198C15.1639 25.2195 15.6558 24.1303 15.7066 22.9775L15.7169 1.8911L19.5445 1.89761L19.5352 1.85109C19.4533 1.40981 19.4119 0.961987 19.4114 0.513184H14.1361L14.1277 21.6396C14.1014 22.3875 13.8857 23.1164 13.5007 23.758C13.1158 24.3997 12.5743 24.9332 11.9269 25.3085C11.2795 25.6837 10.5474 25.8885 9.79927 25.9036C9.05113 25.9186 8.31141 25.7435 7.64941 25.3947C8.4542 26.5112 9.76232 27.2778 11.2407 27.2778Z" fill="#25F4EE"/>
<path d="M26.7423 9.10517V7.84728C25.3239 7.84827 23.9361 7.43536 22.749 6.65918C23.7706 7.8324 25.1606 8.76279 26.7423 9.10517Z" fill="#25F4EE"/>
<path d="M22.7477 6.65935C21.5838 5.328 20.9428 3.61944 20.9437 1.85107H19.4941C19.8663 3.85979 21.0954 5.58288 22.7477 6.65935Z" fill="#FE2C55"/>
<path d="M9.70487 17.0017C8.52175 17.0107 7.38963 17.4847 6.55301 18.3213C5.71639 19.1579 5.2424 20.29 5.2334 21.4732C5.2334 23.1749 6.23915 24.6533 7.65242 25.3948C7.10551 24.643 6.80976 23.7379 6.80728 22.8083C6.8048 21.8786 7.09572 20.9719 7.63861 20.2173C8.1815 19.4626 8.94866 18.8985 9.83085 18.6053C10.713 18.3121 11.6653 18.3048 12.5519 18.5843V13.2029C12.1184 13.1422 11.6814 13.1111 11.2437 13.1099C11.1674 13.1099 11.0911 13.1099 11.0149 13.1155H10.9786V17.1803C10.5661 17.0537 10.1362 16.9934 9.70487 17.0017Z" fill="#FE2C55"/>
<path d="M26.7428 9.0217L26.7158 9.01611L26.7028 13.0736C24.0728 13.0711 21.5103 12.2407 19.3787 10.7001L19.3732 21.4732C19.3647 23.2404 18.8741 24.9719 17.9543 26.4809C17.0345 27.99 15.7203 29.2194 14.1534 30.0368C12.5865 30.8542 10.8263 31.2285 9.0624 31.1194C7.29849 31.0103 5.5978 30.422 4.14355 29.4178C5.47012 30.8448 7.19578 31.8392 9.09565 32.2712C10.9955 32.7033 12.9815 32.5531 14.7948 31.8401C16.608 31.1271 18.1645 29.8845 19.2612 28.2741C20.358 26.6638 20.9443 24.7604 20.9437 22.812V12.0976C23.0803 13.634 25.6462 14.4592 28.2779 14.4561V9.18452C27.7619 9.18437 27.2474 9.1298 26.7428 9.0217Z" fill="#FE2C55"/>
<path d="M19.4078 21.4732V10.7607C21.5447 12.2972 24.1111 13.122 26.743 13.1183V9.02455C25.1913 8.69011 23.7901 7.86117 22.7498 6.66228C21.9163 6.12005 21.2015 5.41434 20.6487 4.58787C20.0958 3.7614 19.7164 2.83135 19.5334 1.854H15.6714L15.663 22.9804C15.6304 23.9029 15.3099 24.7921 14.7465 25.5233C14.1832 26.2545 13.4051 26.7911 12.5214 27.0578C11.6377 27.3246 10.6927 27.3081 9.81885 27.0107C8.945 26.7133 8.18611 26.1499 7.64857 25.3995C6.76887 24.9409 6.06859 24.2003 5.65999 23.2963C5.2514 22.3923 5.15814 21.3774 5.39519 20.4141C5.63223 19.4508 6.18584 18.5949 6.96727 17.9838C7.7487 17.3726 8.71272 17.0416 9.70475 17.0436C10.1483 17.0451 10.5891 17.1142 11.0119 17.2483V13.1136C9.14265 13.1564 7.32562 13.7388 5.77979 14.7907C4.23396 15.8426 3.02529 17.3191 2.29943 19.0422C1.57356 20.7653 1.36146 22.6616 1.6887 24.5025C2.01593 26.3434 2.86855 28.0504 4.14379 29.4178C5.59694 30.4373 7.30208 31.0383 9.07333 31.1553C10.8446 31.2722 12.6139 30.9007 14.1885 30.0811C15.7631 29.2616 17.0825 28.0255 18.0029 26.5076C18.9232 24.9897 19.4092 23.2483 19.4078 21.4732Z" fill="white"/>
<path d="M32.136 34.5H34.008V30.516H36.824C39.048 30.516 40.312 28.98 40.312 27.172C40.312 25.364 39.064 23.828 36.824 23.828H32.136V34.5ZM38.392 27.172C38.392 28.196 37.624 28.868 36.568 28.868H34.008V25.476H36.568C37.624 25.476 38.392 26.148 38.392 27.172ZM46.2299 34.5H47.9099V29.38C47.9099 27.3 46.4059 26.58 44.6939 26.58C43.4619 26.58 42.3419 26.98 41.4459 27.828L42.1339 28.996C42.8059 28.34 43.5579 28.02 44.4219 28.02C45.4939 28.02 46.2299 28.564 46.2299 29.46V30.612C45.6699 29.956 44.7739 29.62 43.7339 29.62C42.4699 29.62 41.0459 30.356 41.0459 32.132C41.0459 33.844 42.4699 34.692 43.7339 34.692C44.7579 34.692 45.6539 34.324 46.2299 33.668V34.5ZM46.2299 32.74C45.8459 33.268 45.1259 33.54 44.3899 33.54C43.4459 33.54 42.7419 32.996 42.7419 32.164C42.7419 31.316 43.4459 30.772 44.3899 30.772C45.1259 30.772 45.8459 31.044 46.2299 31.572V32.74ZM50.088 34.5H51.768V29.236C52.104 28.692 53.048 28.212 53.752 28.212C53.96 28.212 54.136 28.228 54.28 28.26V26.596C53.272 26.596 52.344 27.172 51.768 27.908V26.772H50.088V34.5ZM57.9549 34.692C58.7389 34.692 59.2349 34.484 59.5389 34.196L59.1389 32.932C59.0109 33.076 58.7069 33.204 58.3869 33.204C57.9069 33.204 57.6509 32.82 57.6509 32.292V28.244H59.2189V26.772H57.6509V24.66H55.9709V26.772H54.6909V28.244H55.9709V32.708C55.9709 33.988 56.6589 34.692 57.9549 34.692ZM65.9603 34.5H67.6403V29.06C67.6403 27.476 66.8083 26.58 65.1443 26.58C63.9283 26.58 62.9363 27.22 62.4243 27.828V26.772H60.7443V34.5H62.4243V29.108C62.8083 28.58 63.5443 28.068 64.4083 28.068C65.3523 28.068 65.9603 28.468 65.9603 29.668V34.5ZM69.3424 30.628C69.3424 33.076 71.0704 34.692 73.3904 34.692C74.6224 34.692 75.7584 34.308 76.5264 33.572L75.7584 32.468C75.2144 33.012 74.3184 33.316 73.5664 33.316C72.1104 33.316 71.2304 32.356 71.1024 31.188H77.0704V30.788C77.0704 28.356 75.5824 26.58 73.2624 26.58C70.9744 26.58 69.3424 28.388 69.3424 30.628ZM73.2624 27.956C74.7824 27.956 75.4064 29.092 75.4384 30.004H71.0864C71.1664 29.06 71.8224 27.956 73.2624 27.956ZM78.7286 34.5H80.4086V29.236C80.7446 28.692 81.6886 28.212 82.3926 28.212C82.6006 28.212 82.7766 28.228 82.9206 28.26V26.596C81.9126 26.596 80.9846 27.172 80.4086 27.908V26.772H78.7286V34.5ZM88.4329 34.5H90.3049V30.516H93.1209C95.3449 30.516 96.6089 28.98 96.6089 27.172C96.6089 25.364 95.3609 23.828 93.1209 23.828H88.4329V34.5ZM94.6889 27.172C94.6889 28.196 93.9209 28.868 92.8649 28.868H90.3049V25.476H92.8649C93.9209 25.476 94.6889 26.148 94.6889 27.172ZM98.1193 34.5H99.7993V23.828H98.1193V34.5ZM106.699 34.5H108.379V29.38C108.379 27.3 106.875 26.58 105.163 26.58C103.931 26.58 102.811 26.98 101.915 27.828L102.603 28.996C103.275 28.34 104.027 28.02 104.891 28.02C105.963 28.02 106.699 28.564 106.699 29.46V30.612C106.139 29.956 105.243 29.62 104.203 29.62C102.939 29.62 101.515 30.356 101.515 32.132C101.515 33.844 102.939 34.692 104.203 34.692C105.227 34.692 106.123 34.324 106.699 33.668V34.5ZM106.699 32.74C106.315 33.268 105.595 33.54 104.859 33.54C103.915 33.54 103.211 32.996 103.211 32.164C103.211 31.316 103.915 30.772 104.859 30.772C105.595 30.772 106.315 31.044 106.699 31.572V32.74ZM112.877 34.692C113.661 34.692 114.157 34.484 114.461 34.196L114.061 32.932C113.933 33.076 113.629 33.204 113.309 33.204C112.829 33.204 112.573 32.82 112.573 32.292V28.244H114.141V26.772H112.573V24.66H110.893V26.772H109.613V28.244H110.893V32.708C110.893 33.988 111.581 34.692 112.877 34.692ZM116.066 34.5H117.746V28.244H119.314V26.772H117.746V26.34C117.746 25.476 118.162 25.044 118.818 25.044C119.058 25.044 119.298 25.092 119.49 25.204L119.858 23.972C119.522 23.78 119.042 23.668 118.514 23.668C117.09 23.668 116.066 24.612 116.066 26.34V26.772H114.786V28.244H116.066V34.5ZM124.076 34.692C126.556 34.692 128.06 32.852 128.06 30.628C128.06 28.42 126.556 26.58 124.076 26.58C121.628 26.58 120.108 28.42 120.108 30.628C120.108 32.852 121.628 34.692 124.076 34.692ZM124.076 33.204C122.652 33.204 121.852 32.004 121.852 30.628C121.852 29.268 122.652 28.068 124.076 28.068C125.516 28.068 126.316 29.268 126.316 30.628C126.316 32.004 125.516 33.204 124.076 33.204ZM129.76 34.5H131.44V29.236C131.776 28.692 132.72 28.212 133.424 28.212C133.632 28.212 133.808 28.228 133.952 28.26V26.596C132.944 26.596 132.016 27.172 131.44 27.908V26.772H129.76V34.5ZM144.779 34.5H146.459V28.916C146.459 27.348 145.659 26.58 144.235 26.58C143.083 26.58 142.059 27.3 141.611 28.004C141.355 27.156 140.651 26.58 139.499 26.58C138.331 26.58 137.307 27.348 136.987 27.828V26.772H135.307V34.5H136.987V29.108C137.339 28.596 138.027 28.068 138.763 28.068C139.675 28.068 140.043 28.628 140.043 29.46V34.5H141.723V29.092C142.059 28.596 142.763 28.068 143.515 28.068C144.411 28.068 144.779 28.628 144.779 29.46V34.5Z" fill="white"/>
</svg>
